<?xml version="1.0" encoding="utf-8"?>
<!-- Generator: Adobe Illustrator 25.2.0, SVG Export Plug-In . SVG Version: 6.00 Build 0)  -->
<svg version="1.1" id="Layer_1" xmlns="http://www.w3.org/2000/svg" xmlns:xlink="http://www.w3.org/1999/xlink" x="0px" y="0px"
	 viewBox="0 0 3839.82 2898.61" style="enable-background:new 0 0 3839.82 2898.61;" xml:space="preserve">
<style type="text/css">
	.st0{fill:#EF3087;stroke:#FFFFFF;stroke-width:117.7246;stroke-miterlimit:47.0898;}
	.st1{fill:#FCFCFC;}
</style>
<path d="M2308.63,2684.71L907.71,2256.66c-177.06-54.15-276.89-241.57-222.73-419.1l427.58-1400.45
	c54.15-177.06,241.57-276.89,419.1-222.73l1400.92,427.58c177.06,54.15,276.89,241.57,222.74,419.1l-428.05,1400.92
	C2673.11,2639.03,2485.69,2738.86,2308.63,2684.71z"/>
<circle class="st0" cx="1920.14" cy="1449.54" r="1068"/>
<circle class="st1" cx="1920.14" cy="1449.54" r="133.74"/>
<path class="st1" d="M1528.83,1219.27c-161.52-38.61-260.88-200.6-222.73-361.65c38.61-161.52,200.6-260.88,361.65-222.73
	c161.52,38.61,260.88,200.6,222.73,361.65C1852.33,1157.58,1690.34,1257.41,1528.83,1219.27L1528.83,1219.27z M2373.15,1419.87
	c-161.52-38.61-260.88-200.6-222.73-361.65c38.61-161.52,200.6-260.88,361.65-222.74c161.52,38.61,260.88,200.6,222.73,361.65
	C2696.18,1358.66,2534.19,1458.49,2373.15,1419.87z M1327.75,2063.12c-161.52-38.61-260.88-200.6-222.73-361.65
	c38.61-161.52,200.6-260.88,361.65-222.73c161.52,38.61,260.88,200.6,222.73,361.65C1651.26,2001.9,1489.27,2101.73,1327.75,2063.12
	z M2172.07,2264.19c-161.52-38.61-260.88-200.6-222.73-361.65c38.61-161.52,200.6-260.88,361.65-222.73
	c161.52,38.61,260.88,200.6,222.74,361.65C2495.58,2202.98,2333.59,2302.81,2172.07,2264.19z"/>
</svg>
